<?xml version="1.0" encoding="utf-8"?>
<!-- Generator: Adobe Illustrator 23.0.0, SVG Export Plug-In . SVG Version: 6.00 Build 0)  -->
<svg version="1.1" id="图层_1" xmlns="http://www.w3.org/2000/svg" xmlns:xlink="http://www.w3.org/1999/xlink" x="0px" y="0px"
	 viewBox="0 0 1000 200" style="enable-background:new 0 0 1000 200;" xml:space="preserve">
<style type="text/css">
	.st0{fill:#1096CB;}
	.st1{fill:#3D3D3D;stroke:#3D3D3D;stroke-miterlimit:10;}
</style>
<g>
	<g>
		<g>
			<path class="st0" d="M980.6,21.7c0,3-0.7,5.8-2.3,8.4s-3.5,4.6-6.1,6.1c-2.6,1.6-5.4,2.3-8.4,2.3s-5.8-0.7-8.4-2.3
				s-4.7-3.5-6.1-6.1c-1.6-2.6-2.3-5.4-2.3-8.4s0.7-5.8,2.3-8.4s3.5-4.6,6.1-6.1s5.4-2.3,8.4-2.3s5.8,0.7,8.4,2.3s4.6,3.5,6.1,6.1
				C979.9,15.9,980.6,18.7,980.6,21.7z M977.1,21.7c0-3.7-1.2-6.8-3.9-9.5c-2.6-2.6-5.8-3.9-9.5-3.9s-6.8,1.2-9.5,3.9
				s-3.9,5.8-3.9,9.3c0,2.5,0.5,4.6,1.8,6.7c1.2,2.1,2.8,3.7,4.9,4.9c2.1,1.2,4.4,1.8,6.7,1.8c2.5,0,4.6-0.5,6.7-1.8
				c2.1-1.2,3.7-2.8,4.9-4.7C976.6,26.2,977.1,24,977.1,21.7z M957,12.6h8.1c1.8,0,3,0.2,3.9,0.5s1.4,1.1,1.9,1.8s0.7,1.8,0.7,3
				c0,1.1-0.2,1.8-0.5,2.5s-0.9,1.2-1.8,1.8c0.7,0.4,1.1,0.9,1.4,1.2c0.2,0.5,0.4,1.2,0.5,2.5c0.2,2.3,0.2,3.7,0.4,4
				c0.2,0.4,0.4,0.7,0.7,1.1h-4.6c-0.2-0.5-0.4-0.9-0.4-1.2s-0.2-0.9-0.2-1.8c0-1.6-0.2-2.6-0.4-3s-0.4-0.7-0.7-0.9
				s-1.1-0.4-1.9-0.4h-3.3v7.2h-4L957,12.6L957,12.6z M961,16.1v4.4h3.3c1.2,0,2.1-0.2,2.6-0.5s0.7-0.9,0.7-1.8
				c0-0.7-0.2-1.4-0.7-1.6s-1.2-0.5-2.6-0.5H961z"/>
		</g>
	</g>
	<g>
		<path class="st0" d="M196.8,100.3c0.9,49.1-40.3,94.3-94.3,94.3c-53,0.1-95.3-43.1-95.3-95.4c0-47.8,40-95,96.9-94.3
			C152,5.6,197.7,46,196.8,100.3z M151.8,82.2c-8.3,7.1-14.1,15.9-18.4,25.6c-2.4,5.2-5.6,9.8-10.1,13.5c-1,0.8-1.9,1.2-3.2,0.8
			c-2.7-0.7-5.4-1.4-8.1-1.8c-3.8-0.6-7.7-0.9-11.5,0.7c-1.5,0.7-2.7,1.7-2.8,3.6c-0.1,1.8,0.9,3,2.3,3.9c1.7,1,3.5,1.5,5.5,1.7
			c5.4,0.7,10.6-0.2,15.6-2.2c1.2-0.5,2.3-0.8,3.7-0.3c7.1,2.6,14.1,1.8,21.1-0.7c11.1-3.9,17-12.4,16.7-23.9
			c-0.2-6.9-1.5-13.6-6-19.3c-1.3-1.7-0.7-2.4,0.8-3.3c1.2-0.7,2.6-1,3.5-2.4c-1.1-0.7-2-0.4-2.7,0.2c-2.9,2.3-5.1,1.7-8.1-0.4
			c-7.5-5.1-16-5.1-24.6-3.2c-2.1,0.5-3.8,0.5-5.7-0.8c-2.1-1.4-4.5-2.2-7-2.8c-4.3-1.1-8.8-1.7-13.2-2.1
			c-14.4-1.2-27.9,1.3-40.6,8.3c-7.2,4-12.7,9.9-16,17.5c-3,6.8,0,13.2,7.1,15.5c0.8,0.3,1.6,0.5,2.4,0.7c1.2,0.3,1.7,0.6,1.6,2.2
			c-0.6,5.8,1.5,10.5,6.3,13.8c5.8,4.1,12.3,4.5,18.9,2.6c7-2,12.7-5.9,15.6-12.9c2.7-6.7-0.8-12.1-8.1-12.5c-0.3,0-0.7,0.2-0.7-0.5
			c4.5-2.5,8.5-5.8,12.6-9.3c0.4,1.4-0.2,2.3-0.4,3.2c-1.6,7,2.5,14.2,9.4,16s18-1.2,21.6-10.5c1.9-4.9,2.4-10,1.4-15.2
			c-0.8-4.1-3-7.4-5.7-10.5C133.4,73.6,146.1,75.7,151.8,82.2z M184.6,82.6c0-0.6,0-1.2,0-1.7c-0.1-0.7-0.2-1.3-0.4-2
			C176.8,51.4,160.1,32,134,20.7c-8.6-3.7-17.7-6-27.3-6.1c-1.6,0-3,0.3-4.3,1.2c-3.4,2.2-4.6,6.4-3.1,10.1s5.4,5.7,9.7,4.6
			c6.4-1.6,12.9-1.7,19.3-1.1c8,0.8,15.8,2.7,23,6.5c9.8,5.1,16.4,13.4,22,22.6C177.9,66,181.5,74.2,184.6,82.6z M116,182.8
			c1.4,0.4,2.4,0.1,3.5-0.1c19.2-4.2,35.4-13.5,48-28.7c11.8-14.1,18.7-30.2,19.6-48.6c0.2-3.5-1.1-6.2-4.2-7.7
			c-3-1.5-6.1-1.3-8.8,0.9c-2.6,2.1-3.6,5.1-2.8,8.4c3.2,13.4,1.2,26.4-3.8,38.9c-4.1,10.3-12.1,17.3-21.1,23.3
			C137.1,175.3,126.9,179.2,116,182.8z M18.8,113.1c-0.1,0-0.3,0-0.4,0c0,0.3-0.2,0.5-0.1,0.7c3.8,21.2,14,38.8,30.8,52.3
			c12.9,10.4,27.6,16.6,44.3,18.2c3.8,0.3,6.7-0.8,8.6-3.9c1.8-2.9,1.5-5.9-0.3-8.6c-2-3.2-5.3-4.1-8.6-3.4
			c-8.2,1.8-16.2,1.3-24.4-0.2c-14.6-2.6-26.3-9.7-34.6-22.1c-4.9-7.2-8.9-15-11.9-23.1C21,119.8,20,116.4,18.8,113.1z M85.6,16.8
			c-0.9-0.6-1.5-0.3-2.1-0.2c-4,1.2-8.2,2.1-12.1,3.7C46.2,30.7,29.3,48.8,20.8,74.7c-2.2,6.7-3.5,13.5-3.3,20.7
			c0.1,2.3,0.9,4.1,2.7,5.5c2.6,2,6.8,2.2,9.5,0.5s4.3-5.4,3.4-8.6c-2.5-8.9-2-17.7-0.2-26.6c2.2-11.3,6.9-21.3,15.7-29.1
			c8.7-7.7,18.7-13,29.3-17.3C80.4,18.7,83,17.8,85.6,16.8z"/>
		<path class="st0" d="M106.2,85.1c-0.5-1.2-0.1-1.8,0-2.6c0.8-4.5-1.8-7.8-6.4-8.1c-3.1-0.2-6,0.5-8.9,1.7
			C81.8,80,74.3,86.1,67.3,93c-4.5,4.4-8.4,9.2-11.4,14.8c-0.6,1.2-1.4,1.4-2.7,1.2c-5.9-0.6-8.8-4.5-7.1-10.2
			C48.4,91.1,53.6,85.5,60,81s13.8-6.8,21.4-7.9c11.6-1.7,23.1-1.3,34.2,2.8c0.9,0.3,2,0.6,2.9,1.4C114,79.2,110,82,106.2,85.1z"/>
		<path class="st0" d="M128.2,95.6c0.2,9.3-7.5,17-16.6,16.8c-5-0.1-8.1-3.2-7.8-8.3c0.3-5.9,3.1-11,6.4-15.7
			c2.4-3.4,5.4-6.2,8.9-8.5c1.5-1,2.4-0.9,3.6,0.5C126.6,84.9,127.9,90.2,128.2,95.6z"/>
		<path class="st0" d="M153.8,83.7c7.2,8.7,8.2,25.3,0,34.1c-6.4,6.8-19.2,10.7-25.1,7.2c3.1-1.8,6.1-3.7,8.7-6
			c3.9-3.6,6.7-7.8,8.2-12.9c1.5-5.3,2.9-10.7,4.9-15.9C151.3,87.9,152.3,85.7,153.8,83.7z"/>
		<path class="st0" d="M77.7,107.8c-1.5,2.7-3.5,4.9-3.9,8c-0.1,0.6-0.2,1.2-0.2,1.7c0,0.8,0.1,1.7,1,1.8c1,0.1,1.1-0.8,1.3-1.5
			c0.6-2,1-3.9,1.9-5.8c1.9-3.7,5.2-5.6,9.3-5.2c2.6,0.2,4.3,1.7,5.1,4.2c0.7,2.5,0.4,4.9-0.8,7.1c-3.6,6.6-15.5,11.8-22.8,10.1
			c-3.7-0.9-5.2-2.7-5.3-6.6c0-1.4,0.1-2.7,0.3-4c0.6-3.8,1.8-6.8,6.4-7.4C72.7,109.9,75.2,108.6,77.7,107.8z"/>
		<path class="st0" d="M68.6,108.5c0-0.9,0.4-1.4,0.8-2c6-9.6,12.8-18.6,21.3-26.2c1.8-1.6,3.7-3,5.9-3.9c1.7-0.7,3.5-1.1,5,0.3
			c1.6,1.4,1.2,3.3,0.6,5c-0.9,2.6-2.3,4.9-3.9,7c-6,7.8-13.1,14.1-22.2,17.9C73.7,107.5,71.2,108.4,68.6,108.5z"/>
		<path class="st0" d="M119.5,125.2c-5.4,3.7-10.8,4.4-16.6,2.5c-1.5-0.5-3.2-1.2-2.9-3.3c0.3-2,2-2.4,3.6-2.6
			c3.7-0.6,7.4,0.2,10.9,1.3C116,123.6,117.6,124.1,119.5,125.2z"/>
	</g>
	<g>
		<path class="st0" d="M315.4,41.6l-8.8,8.4c-6-6.3-12.7-9.5-20.2-9.5c-6.3,0-11.6,2.2-16,6.5c-4.3,4.3-6.5,9.7-6.5,16
			c0,4.4,1,8.3,2.9,11.8c1.9,3.4,4.6,6.1,8.1,8.1c3.5,2,7.4,2.9,11.7,2.9c3.7,0,7-0.7,10-2c3-1.4,6.4-3.8,10-7.5l8.5,8.9
			c-4.9,4.8-9.5,8.1-13.9,9.9c-4.3,1.8-9.3,2.8-14.9,2.8c-10.3,0-18.7-3.3-25.3-9.8c-6.6-6.5-9.8-14.9-9.8-25.1
			c0-6.6,1.5-12.5,4.5-17.6c3-5.1,7.3-9.3,12.8-12.4c5.6-3.1,11.6-4.7,18-4.7c5.5,0,10.7,1.2,15.8,3.5
			C307.4,34,311.7,37.3,315.4,41.6z"/>
		<path class="st0" d="M326.5,29.9h14.9c9.6,0,16.8,1.2,21.4,3.6c4.7,2.4,8.5,6.3,11.6,11.6c3,5.4,4.5,11.6,4.5,18.8
			c0,5.1-0.8,9.8-2.5,14.1c-1.7,4.3-4,7.8-7,10.6c-3,2.8-6.2,4.8-9.7,5.8s-9.5,1.6-18.1,1.6h-15.1V29.9z M339,42.1v41.7h5.8
			c5.8,0,9.9-0.7,12.5-2c2.6-1.3,4.7-3.5,6.4-6.7c1.6-3.1,2.5-7,2.5-11.5c0-7-2-12.5-5.9-16.3c-3.5-3.5-9.2-5.2-17-5.2H339z"/>
		<path class="st0" d="M416.7,96.1V29.9h10.4c6,0,10.4,0.4,13.2,1.2c4,1,7.1,3,9.5,5.8c2.3,2.8,3.5,6.2,3.5,10.1
			c0,2.5-0.5,4.8-1.6,6.9c-1.1,2.1-2.8,4-5.2,5.8c4,1.9,7,4.3,8.8,7.1c1.9,2.8,2.8,6.2,2.8,10.1c0,3.7-1,7.1-2.9,10.2
			c-1.9,3.1-4.4,5.3-7.4,6.9c-3,1.5-7.2,2.3-12.6,2.3H416.7z M429.3,41.9v13.9h2.8c3.1,0,5.4-0.6,6.8-1.9c1.5-1.3,2.2-3,2.2-5.3
			c0-2.1-0.7-3.7-2.1-4.9c-1.4-1.2-3.6-1.8-6.5-1.8H429.3z M429.3,67.1v17h3.2c5.2,0,8.8-0.7,10.6-2c1.8-1.3,2.7-3.2,2.7-5.8
			c0-2.8-1.1-5.1-3.2-6.7c-2.1-1.6-5.7-2.5-10.6-2.5H429.3z"/>
		<path class="st0" d="M473.6,27c2.2,0,4,0.8,5.5,2.3c1.5,1.6,2.3,3.4,2.3,5.7c0,2.2-0.8,4.1-2.3,5.6c-1.5,1.5-3.3,2.3-5.5,2.3
			c-2.2,0-4-0.8-5.6-2.4c-1.5-1.6-2.3-3.5-2.3-5.7c0-2.2,0.8-4,2.3-5.5C469.6,27.8,471.4,27,473.6,27z M467.4,47.2h12.3v48.9h-12.3
			V47.2z"/>
		<path class="st0" d="M513.8,45.9c4.6,0,9,1.2,13,3.5c4.1,2.3,7.2,5.4,9.5,9.4c2.3,4,3.4,8.2,3.4,12.8c0,4.6-1.1,8.9-3.4,13
			c-2.3,4-5.4,7.2-9.4,9.4s-8.3,3.4-13.1,3.4c-7,0-13-2.5-18-7.5c-5-5-7.4-11.1-7.4-18.2c0-7.6,2.8-14,8.4-19.1
			C501.8,48.1,507.4,45.9,513.8,45.9z M514,57.5c-3.8,0-7,1.3-9.5,4c-2.5,2.7-3.8,6-3.8,10.2c0,4.3,1.3,7.7,3.8,10.3
			c2.5,2.6,5.7,4,9.5,4c3.8,0,7-1.3,9.6-4c2.6-2.7,3.8-6.1,3.8-10.3s-1.3-7.6-3.8-10.2C521.1,58.8,517.9,57.5,514,57.5z"/>
		<path class="st0" d="M585.9,38.9l-9.3,8.2c-3.3-4.6-6.6-6.8-10-6.8c-1.7,0-3,0.4-4.1,1.3c-1.1,0.9-1.6,1.9-1.6,3
			c0,1.1,0.4,2.2,1.1,3.1c1,1.3,4.1,4.2,9.2,8.5c4.8,4,7.7,6.6,8.7,7.6c2.6,2.6,4.4,5,5.4,7.4c1.1,2.4,1.6,4.9,1.6,7.7
			c0,5.4-1.9,9.9-5.6,13.4c-3.8,3.5-8.6,5.3-14.7,5.3c-4.7,0-8.8-1.2-12.3-3.5c-3.5-2.3-6.5-5.9-9-10.9L556,77
			c3.2,5.8,6.8,8.8,11,8.8c2.2,0,4-0.6,5.4-1.9c1.5-1.3,2.2-2.7,2.2-4.4c0-1.5-0.6-3-1.7-4.5c-1.1-1.5-3.6-3.8-7.3-6.9
			c-7.2-5.9-11.9-10.4-14-13.6c-2.1-3.2-3.2-6.4-3.2-9.6c0-4.6,1.7-8.5,5.2-11.8c3.5-3.3,7.8-4.9,12.9-4.9c3.3,0,6.4,0.8,9.4,2.3
			C579.2,32.1,582.4,34.9,585.9,38.9z"/>
		<path class="st0" d="M645.6,57.1l-10.2,5.6c-1.9-2-3.8-3.4-5.7-4.2s-4.1-1.2-6.6-1.2c-4.6,0-8.3,1.4-11.1,4.1
			c-2.8,2.7-4.3,6.2-4.3,10.5c0,4.2,1.4,7.6,4.1,10.2c2.7,2.6,6.3,4,10.8,4c5.5,0,9.8-1.9,12.8-5.6l9.7,6.6
			c-5.2,6.8-12.7,10.2-22.2,10.2c-8.6,0-15.3-2.5-20.2-7.6c-4.9-5.1-7.3-11.1-7.3-17.9c0-4.7,1.2-9.1,3.6-13.1s5.7-7.1,9.9-9.4
			c4.2-2.3,9-3.4,14.2-3.4c4.9,0,9.2,1,13.1,2.9C640,50.7,643.2,53.5,645.6,57.1z"/>
		<path class="st0" d="M661.5,27c2.2,0,4,0.8,5.5,2.3c1.5,1.6,2.3,3.4,2.3,5.7c0,2.2-0.8,4.1-2.3,5.6c-1.5,1.5-3.3,2.3-5.5,2.3
			c-2.2,0-4-0.8-5.6-2.4c-1.5-1.6-2.3-3.5-2.3-5.7c0-2.2,0.8-4,2.3-5.5C657.5,27.8,659.3,27,661.5,27z M655.3,47.2h12.3v48.9h-12.3
			V47.2z"/>
		<path class="st0" d="M727.8,75.2h-39.4c0.6,3.5,2.1,6.2,4.6,8.3c2.5,2.1,5.6,3.1,9.5,3.1c4.6,0,8.5-1.6,11.8-4.8l10.3,4.9
			c-2.6,3.7-5.7,6.4-9.3,8.1c-3.6,1.8-7.9,2.6-12.8,2.6c-7.7,0-13.9-2.4-18.8-7.3s-7.2-10.9-7.2-18.2c0-7.5,2.4-13.7,7.2-18.6
			c4.8-4.9,10.8-7.4,18.1-7.4c7.7,0,14,2.5,18.8,7.4c4.8,4.9,7.2,11.4,7.2,19.5L727.8,75.2z M715.5,65.5c-0.8-2.7-2.4-4.9-4.8-6.7
			c-2.4-1.7-5.2-2.6-8.3-2.6c-3.4,0-6.4,1-9,2.9c-1.6,1.2-3.1,3.3-4.5,6.3H715.5z"/>
		<path class="st0" d="M737.7,47.2H750v5c2.8-2.3,5.3-4,7.6-4.9c2.3-0.9,4.6-1.4,6.9-1.4c4.9,0,9,1.7,12.4,5.1
			c2.8,2.9,4.3,7.1,4.3,12.8v32.3H769V74.7c0-5.8-0.3-9.7-0.8-11.6c-0.5-1.9-1.4-3.4-2.7-4.4s-2.9-1.5-4.8-1.5
			c-2.5,0-4.6,0.8-6.4,2.5c-1.8,1.7-3,4-3.7,6.9c-0.4,1.5-0.5,4.8-0.5,9.9v19.6h-12.3V47.2z"/>
		<path class="st0" d="M840.9,57.1l-10.2,5.6c-1.9-2-3.8-3.4-5.7-4.2s-4.1-1.2-6.6-1.2c-4.6,0-8.3,1.4-11.1,4.1
			c-2.8,2.7-4.3,6.2-4.3,10.5c0,4.2,1.4,7.6,4.1,10.2c2.7,2.6,6.3,4,10.8,4c5.5,0,9.8-1.9,12.8-5.6l9.7,6.6
			c-5.2,6.8-12.7,10.2-22.2,10.2c-8.6,0-15.3-2.5-20.2-7.6c-4.9-5.1-7.3-11.1-7.3-17.9c0-4.7,1.2-9.1,3.6-13.1s5.7-7.1,9.9-9.4
			s9-3.4,14.2-3.4c4.9,0,9.2,1,13.1,2.9C835.3,50.7,838.5,53.5,840.9,57.1z"/>
		<path class="st0" d="M901,75.2h-39.4c0.6,3.5,2.1,6.2,4.6,8.3c2.5,2.1,5.6,3.1,9.5,3.1c4.6,0,8.5-1.6,11.8-4.8l10.3,4.9
			c-2.6,3.7-5.7,6.4-9.3,8.1c-3.6,1.8-7.9,2.6-12.8,2.6c-7.7,0-13.9-2.4-18.8-7.3s-7.2-10.9-7.2-18.2c0-7.5,2.4-13.7,7.2-18.6
			c4.8-4.9,10.8-7.4,18.1-7.4c7.7,0,14,2.5,18.8,7.4s7.2,11.4,7.2,19.5L901,75.2z M888.7,65.5c-0.8-2.7-2.4-4.9-4.8-6.7
			c-2.4-1.7-5.2-2.6-8.3-2.6c-3.4,0-6.4,1-9,2.9c-1.6,1.2-3.1,3.3-4.5,6.3H888.7z"/>
		<path class="st0" d="M940.9,54l-7.6,7.6c-3.1-3.1-5.9-4.6-8.4-4.6c-1.4,0-2.5,0.3-3.2,0.9c-0.8,0.6-1.2,1.3-1.2,2.2
			c0,0.7,0.2,1.3,0.7,1.8c0.5,0.6,1.7,1.3,3.7,2.3l4.5,2.2c4.7,2.3,8,4.7,9.8,7.2c1.8,2.4,2.7,5.3,2.7,8.5c0,4.3-1.6,8-4.8,10.9
			c-3.2,2.9-7.5,4.4-12.8,4.4c-7.1,0-12.8-2.8-17.1-8.4l7.6-8.2c1.4,1.7,3.1,3,5.1,4.1c1.9,1,3.7,1.6,5.1,1.6c1.6,0,2.9-0.4,3.9-1.2
			c1-0.8,1.5-1.7,1.5-2.7c0-1.9-1.8-3.7-5.4-5.5l-4.1-2.1c-7.9-4-11.9-9-11.9-15c0-3.9,1.5-7.2,4.5-9.9c3-2.7,6.8-4.1,11.4-4.1
			c3.2,0,6.2,0.7,9,2.1C936.6,49.4,939,51.4,940.9,54z"/>
	</g>
</g>
<g>
	<path class="st1" d="M526.7,142h5.5c3.5,0,6.2,0.5,8.1,1.4s3.4,2.3,4.5,4.3s1.7,4.1,1.7,6.6c0,2.6-0.6,5.1-1.9,7.3
		s-2.9,3.8-4.8,4.8s-4.7,1.5-8.5,1.5h-8.1L526.7,142z M528.9,144.5l-2.8,20.8h2.3c3.5,0,5.8-0.1,6.9-0.3c1.7-0.3,3.2-0.8,4.4-1.7
		c1.2-0.8,2.2-2.1,3-3.7c0.8-1.6,1.3-3.4,1.3-5.4c0-2.1-0.5-3.8-1.4-5.4c-1-1.5-2.3-2.7-3.9-3.4c-1.4-0.7-3.8-1-7.2-1H528.9z"/>
	<path class="st1" d="M551.5,148.8h2.5l-0.3,2.4c0.7-0.9,1.4-1.6,2.4-2.1c0.9-0.5,1.9-0.8,2.9-0.8c0.7,0,1.4,0.2,2.2,0.5l-1.2,2.3
		c-0.6-0.2-1.1-0.4-1.5-0.4c-0.9,0-1.7,0.3-2.5,0.9c-0.8,0.6-1.5,1.5-2,2.6c-0.5,1.1-1,3-1.3,5.6l-1.1,8.1h-2.4L551.5,148.8z"/>
	<path class="st1" d="M564.4,148.8h2.5l-1.2,8c-0.3,2.4-0.5,3.8-0.5,4.5c0,1.4,0.4,2.6,1.3,3.5c0.9,0.9,2.1,1.4,3.6,1.4
		c1.2,0,2.3-0.4,3.2-1.1c0.9-0.7,1.5-1.6,1.9-2.8c0.2-0.6,0.4-1.9,0.7-4l1.3-9.6h2.4l-0.9,7.2c-0.4,3.5-0.9,5.9-1.4,7.4
		c-0.5,1.5-1.4,2.7-2.7,3.6c-1.3,0.9-2.8,1.4-4.6,1.4c-2.1,0-3.8-0.7-5.1-2c-1.3-1.4-2-3-2-5.1c0-0.8,0.1-1.8,0.2-2.8l0.2-1.7
		l0.1-0.7L564.4,148.8z"/>
	<path class="st1" d="M601.4,148.8h2.4l-2.2,16.2c-0.4,2.6-0.8,4.4-1.3,5.5c-0.7,1.4-1.8,2.6-3.4,3.6c-1.6,0.9-3.5,1.4-5.7,1.4
		c-2.2,0-4-0.4-5.5-1.3s-2.7-2.2-3.5-3.8l2.2-0.8c1.3,2.4,3.6,3.6,6.8,3.6c1.7,0,3.1-0.3,4.3-1c1.2-0.7,2.1-1.6,2.6-2.6
		c0.3-0.6,0.6-2,1-4.2l0.1-0.7c-2.1,2.3-4.6,3.4-7.6,3.4c-2.6,0-4.8-0.8-6.4-2.4c-1.6-1.6-2.4-3.7-2.4-6.3c0-1.9,0.5-3.7,1.5-5.4
		s2.3-3,4-4c1.7-1,3.5-1.5,5.2-1.5c1.5,0,2.8,0.3,4,1c1.2,0.7,2.3,1.7,3.2,3.1L601.4,148.8z M594.1,150.6c-1.6,0-3.1,0.4-4.5,1.2
		s-2.4,1.8-3.2,3.1c-0.8,1.3-1.1,2.8-1.1,4.4c0,1.9,0.6,3.4,1.8,4.5c1.2,1.1,2.8,1.7,4.8,1.7c2.4,0,4.5-0.8,6.1-2.4
		c1.6-1.6,2.4-3.6,2.4-6c0-2.1-0.7-3.8-2-4.9C597.1,151.2,595.7,150.6,594.1,150.6z"/>
	<path class="st1" d="M632.3,146.8l-2.4,0.6c-0.3-1.1-0.9-2-1.6-2.6s-1.6-0.9-2.4-0.9c-1,0-1.7,0.3-2.3,1s-0.9,1.5-0.9,2.6
		c0,1,0.3,2,1,3c0.4,0.7,1.4,1.7,2.9,3.1c1.6,1.4,2.7,2.8,3.3,4s0.9,2.4,0.9,3.6c0,1.3-0.3,2.5-1,3.6s-1.6,2.1-2.8,2.7s-2.4,1-3.7,1
		c-1.7,0-3.1-0.5-4.3-1.6s-2.1-2.6-2.6-4.6l2.4-0.8c0.4,1.5,1,2.7,1.8,3.4s1.8,1.1,2.9,1.1c1.3,0,2.3-0.5,3.2-1.4s1.4-2.1,1.4-3.4
		c0-1-0.3-2-0.8-2.9s-1.5-2.1-3-3.4c-1.6-1.5-2.6-2.6-3.1-3.3c-0.8-1.3-1.2-2.6-1.2-4.1c0-1.8,0.6-3.2,1.7-4.4s2.6-1.7,4.3-1.7
		c1.4,0,2.7,0.5,3.8,1.4S631.8,145,632.3,146.8z"/>
	<path class="st1" d="M655,152.9l-2,1.2c-1.4-2.3-3.6-3.4-6.5-3.4c-1.7,0-3.2,0.4-4.6,1.1c-1.4,0.8-2.5,1.8-3.3,3.1
		s-1.2,2.8-1.2,4.3c0,1.3,0.3,2.6,0.9,3.6c0.6,1.1,1.4,1.9,2.5,2.5c1.1,0.6,2.3,0.9,3.7,0.9c1.5,0,2.9-0.3,4.2-0.9
		c1.3-0.6,2.4-1.3,3.1-2.3l2,1.4c-1.3,1.4-2.6,2.4-4.1,3s-3.2,1-5.2,1c-3,0-5.4-0.8-7.1-2.5s-2.5-3.8-2.5-6.6c0-3,1.1-5.7,3.3-7.8
		s4.9-3.2,8.2-3.2c1.9,0,3.6,0.4,5.1,1.2S654.2,151.4,655,152.9z"/>
	<path class="st1" d="M659.6,148.8h2.5l-0.3,2.4c0.7-0.9,1.4-1.6,2.4-2.1c0.9-0.5,1.9-0.8,2.9-0.8c0.7,0,1.4,0.2,2.2,0.5L668,151
		c-0.6-0.2-1.1-0.4-1.5-0.4c-0.9,0-1.7,0.3-2.5,0.9c-0.8,0.6-1.5,1.5-2,2.6c-0.5,1.1-1,3-1.3,5.6l-1.1,8.1H657L659.6,148.8z"/>
	<path class="st1" d="M688.6,158.8h-17.1c0,2.3,0.6,4.1,1.8,5.4s2.8,2,4.9,2c1.3,0,2.6-0.3,3.7-0.8s2.1-1.3,2.8-2.3l1.8,1.5
		c-0.9,1.2-2.1,2.1-3.6,2.8s-3.1,1.1-4.8,1.1c-3,0-5.3-0.9-6.8-2.8s-2.3-3.9-2.3-6.3c0-1.9,0.5-3.7,1.5-5.5s2.4-3.1,4.1-4.1
		s3.5-1.5,5.5-1.5c2.4,0,4.5,0.8,6.1,2.5s2.4,3.8,2.4,6.3C688.7,157.6,688.7,158.1,688.6,158.8z M686.3,156.7
		c-0.1-1.8-0.7-3.3-1.8-4.4c-1.2-1.1-2.6-1.7-4.4-1.7c-1.9,0-3.6,0.5-5.1,1.6s-2.5,2.6-3.1,4.4H686.3z"/>
	<path class="st1" d="M712,158.8h-17.1c0,2.3,0.6,4.1,1.8,5.4s2.8,2,4.9,2c1.3,0,2.6-0.3,3.7-0.8s2.1-1.3,2.8-2.3l1.8,1.5
		c-0.9,1.2-2.1,2.1-3.6,2.8s-3.1,1.1-4.8,1.1c-3,0-5.3-0.9-6.8-2.8s-2.3-3.9-2.3-6.3c0-1.9,0.5-3.7,1.5-5.5s2.4-3.1,4.1-4.1
		s3.5-1.5,5.5-1.5c2.4,0,4.5,0.8,6.1,2.5s2.4,3.8,2.4,6.3C712.1,157.6,712.1,158.1,712,158.8z M709.7,156.7
		c-0.1-1.8-0.7-3.3-1.8-4.4c-1.2-1.1-2.6-1.7-4.4-1.7c-1.9,0-3.6,0.5-5.1,1.6s-2.5,2.6-3.1,4.4H709.7z"/>
	<path class="st1" d="M718.2,148.8h2.4l-0.4,3c1.9-2.3,4.2-3.5,6.8-3.5c2,0,3.6,0.6,4.8,1.8c1.2,1.2,1.8,2.8,1.8,4.9
		c0,0.8-0.1,2.2-0.4,4.1l-1.2,8.8h-2.4l1.2-8.8c0.3-1.9,0.4-3.3,0.4-4.2c0-1.3-0.4-2.4-1.2-3.2c-0.8-0.8-1.9-1.2-3.2-1.2
		c-1.3,0-2.5,0.3-3.6,1c-1.1,0.7-2,1.6-2.6,2.7c-0.6,1.1-1.1,2.9-1.4,5.4l-1.1,8.3h-2.4L718.2,148.8z"/>
	<path class="st1" d="M739.7,148.8h2.3l-2.5,19.1h-2.4L739.7,148.8z M741.6,140.9c0.5,0,1,0.2,1.4,0.6s0.6,0.8,0.6,1.4
		c0,0.6-0.2,1-0.6,1.4s-0.8,0.6-1.4,0.6c-0.6,0-1-0.2-1.4-0.6s-0.6-0.8-0.6-1.4c0-0.5,0.2-1,0.6-1.4S741.1,140.9,741.6,140.9z"/>
	<path class="st1" d="M747.4,148.8h2.4l-0.4,3c1.9-2.3,4.2-3.5,6.8-3.5c2,0,3.6,0.6,4.8,1.8c1.2,1.2,1.8,2.8,1.8,4.9
		c0,0.8-0.1,2.2-0.4,4.1l-1.2,8.8h-2.4l1.2-8.8c0.3-1.9,0.4-3.3,0.4-4.2c0-1.3-0.4-2.4-1.2-3.2c-0.8-0.8-1.9-1.2-3.2-1.2
		c-1.3,0-2.5,0.3-3.6,1c-1.1,0.7-2,1.6-2.6,2.7c-0.6,1.1-1.1,2.9-1.4,5.4l-1.1,8.3h-2.4L747.4,148.8z"/>
	<path class="st1" d="M785.6,148.8h2.4l-2.2,16.2c-0.4,2.6-0.8,4.4-1.3,5.5c-0.7,1.4-1.8,2.6-3.4,3.6c-1.6,0.9-3.5,1.4-5.7,1.4
		c-2.2,0-4-0.4-5.5-1.3s-2.7-2.2-3.5-3.8l2.2-0.8c1.3,2.4,3.6,3.6,6.8,3.6c1.7,0,3.1-0.3,4.3-1s2.1-1.6,2.6-2.6c0.3-0.6,0.6-2,1-4.2
		l0.1-0.7c-2.1,2.3-4.6,3.4-7.6,3.4c-2.6,0-4.8-0.8-6.4-2.4c-1.6-1.6-2.4-3.7-2.4-6.3c0-1.9,0.5-3.7,1.5-5.4s2.3-3,4-4
		c1.7-1,3.5-1.5,5.2-1.5c1.5,0,2.8,0.3,4,1s2.3,1.7,3.2,3.1L785.6,148.8z M778.3,150.6c-1.6,0-3.1,0.4-4.5,1.2s-2.4,1.8-3.2,3.1
		c-0.8,1.3-1.1,2.8-1.1,4.4c0,1.9,0.6,3.4,1.8,4.5c1.2,1.1,2.8,1.7,4.8,1.7c2.4,0,4.5-0.8,6.1-2.4c1.6-1.6,2.4-3.6,2.4-6
		c0-2.1-0.7-3.8-2-4.9C781.3,151.2,779.8,150.6,778.3,150.6z"/>
	<path class="st1" d="M804.8,142h7c2.3,0,4,0.2,5,0.7c1,0.4,1.8,1.1,2.4,2.1s0.9,2.1,0.9,3.4c0,1.7-0.5,3.2-1.4,4.4
		s-2.2,2.1-3.6,2.6c-1.1,0.3-2.9,0.5-5.6,0.5h-3.9l-1.7,12.2h-2.6L804.8,142z M807.1,144.5l-1.2,8.6h3.6c2.4,0,4.1-0.2,5-0.5
		s1.7-0.9,2.2-1.7s0.8-1.7,0.8-2.7c0-0.8-0.2-1.5-0.6-2.1s-0.9-1-1.6-1.2c-0.7-0.2-1.9-0.4-3.7-0.4H807.1z"/>
	<path class="st1" d="M825.3,141.4h2.4l-3.6,26.5h-2.4L825.3,141.4z"/>
	<path class="st1" d="M848.3,167.9h-2.5l0.4-2.9c-2.2,2.2-4.7,3.4-7.6,3.4c-2.6,0-4.7-0.8-6.4-2.5s-2.5-3.8-2.5-6.5
		c0-3,1.1-5.7,3.3-7.8s4.7-3.3,7.7-3.3c1.6,0,3,0.3,4.2,1s2.2,1.7,3,3.1l0.4-3.6h2.6L848.3,167.9z M838.9,166.1c1.6,0,3-0.4,4.3-1.1
		s2.3-1.8,3.1-3.2c0.8-1.4,1.1-2.9,1.1-4.6c0-2-0.6-3.6-1.9-4.8s-2.9-1.9-4.9-1.9c-2.3,0-4.4,0.8-6,2.5c-1.7,1.7-2.5,3.8-2.5,6.3
		c0,2,0.6,3.7,1.9,4.9S836.9,166.1,838.9,166.1z"/>
	<path class="st1" d="M859.6,141.6h2.4l-1,7.2h3.9l-0.3,2.1h-3.9l-2.3,17h-2.5l2.3-17h-3.3l0.3-2.1h3.3L859.6,141.6z"/>
	<path class="st1" d="M877.2,142l-0.3,2.3c-0.9-0.8-1.7-1.3-2.5-1.3c-0.5,0-0.9,0.2-1.3,0.7c-0.4,0.5-0.6,1.4-0.8,2.9l-0.3,2.1h4
		l-0.3,2.1h-4l-2.3,17h-2.4l2.3-17h-2.3l0.3-2.1h2.3l0.2-1.7c0.3-2,0.6-3.3,0.9-4c0.3-0.7,0.8-1.2,1.4-1.6c0.6-0.4,1.3-0.6,2.1-0.6
		C875.2,140.9,876.2,141.3,877.2,142z"/>
	<path class="st1" d="M888.8,148.3c1.6,0,3.1,0.4,4.5,1.2s2.4,1.9,3.2,3.3s1.1,3,1.1,4.7c0,2-0.5,3.9-1.5,5.6s-2.3,3-3.9,4
		s-3.5,1.4-5.6,1.4c-2.6,0-4.7-0.8-6.3-2.5s-2.5-3.8-2.5-6.4c0-2,0.5-3.9,1.5-5.6s2.3-3.1,4-4.1S886.8,148.3,888.8,148.3z
		 M888.7,150.6c-1.5,0-3,0.4-4.3,1.1s-2.4,1.8-3.1,3.1s-1.1,2.8-1.1,4.4c0,2,0.6,3.7,1.9,4.9c1.2,1.3,2.9,1.9,4.8,1.9
		c1.5,0,2.9-0.4,4.2-1.1s2.2-1.8,3-3.2c0.7-1.4,1.1-2.9,1.1-4.4c0-1.3-0.3-2.5-0.8-3.5s-1.3-1.8-2.3-2.4S889.9,150.6,888.7,150.6z"
		/>
	<path class="st1" d="M902.7,148.8h2.5l-0.3,2.4c0.7-0.9,1.4-1.6,2.4-2.1c0.9-0.5,1.9-0.8,2.9-0.8c0.7,0,1.4,0.2,2.2,0.5l-1.2,2.3
		c-0.6-0.2-1.1-0.4-1.5-0.4c-0.9,0-1.7,0.3-2.5,0.9c-0.8,0.6-1.5,1.5-2,2.6s-1,3-1.3,5.6l-1.1,8.1h-2.4L902.7,148.8z"/>
	<path class="st1" d="M914.4,148.8h2.4l-0.4,2.7c0.7-1,1.7-1.8,2.8-2.3s2.3-0.9,3.5-0.9c1.4,0,2.7,0.4,3.8,1.3
		c0.9,0.7,1.5,1.7,1.9,3c0.9-1.4,1.9-2.4,3.2-3.2c1.3-0.7,2.6-1.1,3.9-1.1c1.8,0,3.2,0.6,4.4,1.7c1.1,1.1,1.7,2.6,1.7,4.4
		c0,0.8-0.1,1.8-0.2,3l-1.4,10.5h-2.4l1.2-9.2c0.3-1.9,0.4-3.3,0.4-4.2c0-1.1-0.4-2-1.1-2.8c-0.7-0.7-1.7-1.1-2.9-1.1
		c-1.3,0-2.4,0.4-3.5,1.2c-1.1,0.8-1.9,1.7-2.3,2.8s-0.8,2.4-1,4.1l-1.3,9.2h-2.4l1.4-10.5c0.2-1.1,0.2-2,0.2-2.7
		c0-1.2-0.4-2.2-1.1-3c-0.7-0.7-1.7-1.1-2.9-1.1c-1,0-1.9,0.2-2.9,0.7c-0.9,0.5-1.7,1.1-2.2,1.8s-1,1.7-1.3,2.8s-0.5,2.1-0.6,3
		l-1.2,9h-2.4L914.4,148.8z"/>
</g>
</svg>
