<?xml version="1.0" encoding="utf-8"?>
<!-- Generator: Adobe Illustrator 23.0.0, SVG Export Plug-In . SVG Version: 6.00 Build 0)  -->
<svg version="1.1" id="图层_1" xmlns="http://www.w3.org/2000/svg" xmlns:xlink="http://www.w3.org/1999/xlink" x="0px" y="0px"
	 viewBox="0 0 500 500" style="enable-background:new 0 0 500 500;" xml:space="preserve">
<style type="text/css">
	.st0{fill:#1096CB;}
</style>
<g>
	<g>
		<circle class="st0" cx="153.2" cy="203.4" r="26.9"/>
	</g>
	<g>
		<path class="st0" d="M290.2,307.5l4.9,4.9c4.2,4.2,11.1,4.2,15.3,0l41.7-41.7c4.2-4.2,4.2-11.1,0-15.3l-4.9-4.9
			c-4.2-4.2-11.1-4.2-15.3,0l-41.7,41.7C286,296.5,286,303.3,290.2,307.5z"/>
	</g>
	<g>
		<path class="st0" d="M94.6,115.9l-0.4,0.4c-5.5,5.5-5.6,14.3-0.2,19.9l13.9,14.6c5.5,5.8,14.7,5.9,20.4,0.2l14.7-14.7
			c5.6-5.6,14.7-5.6,20.3,0.1l55.4,56.6c5.6,5.7,5.4,14.8-0.4,20.3L206,225.1c-5.9,5.6-5.9,14.9-0.1,20.6l35.9,34.8
			c5.8,5.6,15,5.3,20.5-0.6l54.6-59.6c5.2-5.7,5-14.5-0.6-19.9L172.9,61.6c-5.4-5.3-14-5.4-19.6-0.3c-5.7,5.2-14.5,5-19.9-0.6
			L104,30.3c-5.4-5.6-14.2-5.8-19.9-0.6l-17.5,16c-5.9,5.4-6.2,14.7-0.6,20.4l28.8,29.7C100.2,101.5,100.1,110.4,94.6,115.9z"/>
	</g>
	<g>
		<path class="st0" d="M440.7,267.6l-1.4-1.4c-4.1-4.1-10.7-4.2-14.9-0.1L289.2,396.5l0.2-0.2c-5.3-20.6-24.1-35.9-46.4-35.9
			c-21.8,0-40.2,14.5-46,34.4h-0.2c-105.3-25.6-84-111.5-75-137.1c1.6-4.5,0.4-9.6-3.1-12.9L104,230.9c-4.7-4.4-12.4-2.6-14.6,3.4
			c-14.7,40.8-47.7,169,105.7,195.8V457h-89.3c-7.3,0-13.3,5.8-13.6,13.2l-0.1,4.3c-0.2,4.7,3.6,8.6,8.3,8.6H385
			c5,0,9.1-4.1,9.1-9.1v-1.6c0-8.9-7.3-16.2-16.2-16.2h-86.2l-0.8-29.4l149.7-143.3C445.1,279.1,445.2,272,440.7,267.6z
			 M242.2,438.5c-14.8,0-26.9-12-26.9-26.9s12-26.9,26.9-26.9c14.8,0,26.9,12,26.9,26.9S257.1,438.5,242.2,438.5z"/>
	</g>
</g>
</svg>
