<?xml version="1.0" encoding="utf-8"?>
<!-- Generator: Adobe Illustrator 23.0.0, SVG Export Plug-In . SVG Version: 6.00 Build 0)  -->
<svg version="1.1" id="图层_1" xmlns="http://www.w3.org/2000/svg" xmlns:xlink="http://www.w3.org/1999/xlink" x="0px" y="0px"
	 viewBox="0 0 500 500" style="enable-background:new 0 0 500 500;" xml:space="preserve">
<style type="text/css">
	.st0{fill:#1096CB;}
</style>
<g>
	<g>
		<g>
			<path class="st0" d="M64.7,437.7h61.2c1.3,0,2.5,0.3,3.7,0.8L225,484c5,2.4,10.6,3.4,16.2,2.9l101.8-9c1.9-0.2,3.7-0.7,5.4-1.5
				l23.2-11.3c2.2-1.1,4.1-2.6,5.7-4.6l78.9-99.4c5.4-6.8,7.1-15.8,4.5-24.1l-0.5-1.7c-1.3-4.1-4.7-7.1-9-7.8l-5.1-0.8
				c-6-0.9-12,1.3-16,5.8l-84.3,94.9c-1.5,1.7-3.7,2.8-6.1,2.9L218.2,435c-2.9,0.1-5.7-1.3-7.3-3.6l0,0c-3.9-5.5-0.1-13.2,6.7-13.4
				l101.2-3.9c8.2-0.3,15.7-4.4,20.4-11.1l3-4.2c5.7-8,5.5-18.8-0.5-26.6l-2.4-3.1c-5.8-7.6-14.9-12-24.4-11.8l-95.3,1.4
				c-1.8,0-3.5-0.5-5-1.5l-37.6-26c-5.5-3.8-12-5.8-18.7-5.8h-43.5c-5.1,0-10.2,1.4-14.5,4.1l-40.8,25c-2.6,1.6-4.1,4.4-4.1,7.4
				l0.7,67.4C56.2,433.9,60,437.7,64.7,437.7z"/>
		</g>
		<g>
			<g>
				<path class="st0" d="M334.6,342.1l2.8,2.9c1.2,1.2,3.1,1.2,4.2,0.1l58.9-57.4c1.2-1.2,1.2-3.1,0.1-4.2l-2.8-2.9
					c-1.2-1.2-3.1-1.2-4.2-0.1l-58.9,57.4C333.5,339,333.5,340.9,334.6,342.1z"/>
			</g>
			<g>
				<path class="st0" d="M354.3,367.1l2.8,2.9c1.2,1.2,3.1,1.2,4.2,0.1l69.6-67.8c1.2-1.2,1.2-3.1,0.1-4.2l-2.8-2.9
					c-1.2-1.2-3.1-1.2-4.2-0.1l-69.6,67.8C353.2,364,353.1,365.9,354.3,367.1z"/>
			</g>
		</g>
	</g>
	<g>
		<path class="st0" d="M300.5,151c0,2.9-2.5,5.4-5.4,5.4s-5.4-2.5-5.4-5.4c0-11.7-18.1-16.2-27-16.2c-2.9,0-5.4-2.5-5.4-5.4
			c0-2.9,2.5-5.4,5.4-5.4C278.3,124,300.5,132.3,300.5,151z M327.5,151c0-33.8-34.3-54.1-64.9-54.1s-64.9,20.3-64.9,54.1
			c0,10.8,4.4,22.1,11.5,30.4c3.2,3.7,6.9,7.3,10.3,11.2c12,14.4,22.1,31.3,23.8,50.4h38.5c1.7-19.1,11.8-36,23.8-50.4
			c3.4-3.9,7.1-7.4,10.3-11.2C323.1,173.2,327.5,161.8,327.5,151z M349.2,151c0,17.4-5.7,32.5-17.4,45.3c-11.7,12.8-27,30.9-28.4,49
			c4.9,2.9,7.9,8.3,7.9,13.9c0,4.1-1.5,7.9-4.2,10.8c2.7,2.9,4.2,6.8,4.2,10.8c0,5.6-2.9,10.6-7.6,13.7c1.4,2.4,2.2,5.2,2.2,7.9
			c0,11-8.6,16.2-18.4,16.2c-4.4,9.8-14.2,16.2-24.8,16.2c-10.6,0-20.5-6.4-24.8-16.2c-9.8,0-18.4-5.2-18.4-16.2
			c0-2.7,0.8-5.6,2.2-7.9c-4.7-3-7.6-8.1-7.6-13.7c0-4.1,1.5-7.9,4.2-10.8c-2.7-2.9-4.2-6.8-4.2-10.8c0-5.6,3-11,7.9-13.9
			c-1.4-18.1-16.7-36.2-28.4-49s-17.4-27.9-17.4-45.3c0-46,43.8-75.7,86.5-75.7S349.2,105,349.2,151z"/>
		<path class="st0" d="M388.6,23.3l5.3,5c2.2,2.1,2.3,5.6,0.2,7.8l-38.4,40.2c-2.1,2.2-5.6,2.3-7.8,0.2l-5.3-5
			c-2.2-2.1-2.3-5.6-0.2-7.8l38.4-40.2C383,21.3,386.4,21.2,388.6,23.3z"/>
		<path class="st0" d="M195.8,78.7l-4.8,5.5c-2,2.3-5.5,2.6-7.8,0.6l-64.7-55.9c-2.3-2-2.6-5.5-0.6-7.8l4.8-5.5
			c2-2.3,5.5-2.6,7.8-0.6l64.8,56C197.6,72.9,197.8,76.4,195.8,78.7z"/>
		<path class="st0" d="M76,180.3l-0.8-7.3c-0.3-3,1.8-5.7,4.9-6.1l55.2-6.1c3-0.3,5.7,1.8,6.1,4.9l0.8,7.3c0.3,3-1.8,5.7-4.9,6.1
			L82,185.2C79,185.5,76.3,183.4,76,180.3z"/>
		<path class="st0" d="M426.7,168.9l-0.6,7.3c-0.3,3-2.9,5.3-5.9,5l-55.4-4.6c-3-0.3-5.3-2.9-5-5.9l0.6-7.3c0.3-3,2.9-5.3,5.9-5
			l55.4,4.6C424.7,163.2,427,165.9,426.7,168.9z"/>
		<path class="st0" d="M154.3,299.1l-5.2-5.2c-2.1-2.1-2.1-5.6,0-7.8l39.3-39.3c2.1-2.1,5.6-2.1,7.8,0l5.2,5.2
			c2.1,2.1,2.1,5.6,0,7.8l-39.3,39.3C159.9,301.2,156.4,301.2,154.3,299.1z"/>
		<path class="st0" d="M399,266.4l-3.7,6.3c-1.5,2.6-4.9,3.5-7.5,2L339.7,247c-2.6-1.5-3.5-4.9-2-7.5l3.7-6.3c1.5-2.6,4.9-3.5,7.5-2
			L397,259C399.6,260.4,400.5,263.8,399,266.4z"/>
	</g>
</g>
</svg>
