<?xml version="1.0" encoding="utf-8"?>
<!-- Generator: Adobe Illustrator 23.0.0, SVG Export Plug-In . SVG Version: 6.00 Build 0)  -->
<svg version="1.1" id="图层_1" xmlns="http://www.w3.org/2000/svg" xmlns:xlink="http://www.w3.org/1999/xlink" x="0px" y="0px"
	 viewBox="0 0 500 500" style="enable-background:new 0 0 500 500;" xml:space="preserve">
<style type="text/css">
	.st0{fill:#1096CB;}
</style>
<g>
	<g>
		<circle class="st0" cx="247.7" cy="112.7" r="93.7"/>
	</g>
	<g>
		<path class="st0" d="M116.7,241.2L21.8,346.9c-6.2,6.9-6.7,17.3-1.1,24.8l61,82.1c11.6,15.6,34,18,48.6,5.2l0.2-0.2
			c13.4-11.8,16.1-31.6,6.3-46.5l-22.3-33.9c-2.2-3.4-3.3-7.4-3.2-11.4l2.1-66c0.4-13.1,13.3-22.1,25.8-18l98.9,33h25.4l98-34.9
			c11.8-3.3,23.7,4.9,24.8,17.1l6.7,73.5c0.5,5-1,10-4.1,13.9l-25,31.7c-10,12.7-8.6,31,3.2,42l0.8,0.8c14,13.1,36.2,11.6,48.3-3.2
			l68.3-83.3c6.2-7.6,5.9-18.6-0.8-25.8L377.6,233.5c-3.9-4.2-9.3-6.4-15-6.2l-232,7.4C125.3,234.8,120.2,237.2,116.7,241.2z"/>
	</g>
	<g>
		<rect x="241.3" y="315.9" class="st0" width="19.1" height="149.3"/>
	</g>
</g>
</svg>
