<?xml version="1.0" encoding="utf-8"?>
<!-- Generator: Adobe Illustrator 23.0.0, SVG Export Plug-In . SVG Version: 6.00 Build 0)  -->
<svg version="1.1"  xmlns="http://www.w3.org/2000/svg" xmlns:xlink="http://www.w3.org/1999/xlink" x="0px" y="0px"
	 viewBox="0 0 60 60" style="enable-background:new 0 0 60 60;" xml:space="preserve">
<style type="text/css">
	.st0{fill:#E6F0E2;}
	.st1{fill:#878786;}
</style>
<g>
	<polygon class="st0" points="20.8,57.5 6.4,47 0.8,30 6.4,13 20.8,2.5 38.7,2.5 53.1,13 58.7,30 53.1,47 38.7,57.5 	"/>
	<path class="st1" d="M38.5,3l14.2,10.3L58.1,30l-5.4,16.7L38.5,57H21L6.8,46.7L1.4,30l5.4-16.7L21,3H38.5 M38.8,2H20.6L5.9,12.7
		L0.3,30l5.6,17.3L20.6,58h18.2l14.7-10.7L59.2,30l-5.6-17.3L38.8,2L38.8,2z"/>
</g>
</svg>
